<svg width="63" height="153" viewBox="0 0 63 153" fill="none" xmlns="http://www.w3.org/2000/svg">
<path d="M19.2418 61.2882H15.6056C16.8086 61.8921 18.1652 62.7082 19.4602 62.997C19.3759 62.429 19.3041 61.8591 19.2418 61.2882ZM57.3959 130.574C57.4592 129.605 56.8106 127.98 56.4227 127.114C55.6075 125.294 54.4607 123.394 53.4546 122.207C52.0184 120.514 50.3789 120.696 48.4167 120.749C40.4653 120.962 25.7353 126.592 19.5305 132.634C17.6903 134.425 16.7196 135.317 17.9125 137.741C19.0603 140.073 21.7302 144.249 23.5101 146.162C24.2061 146.91 25.0118 146.986 25.4512 146.245C30.6487 137.476 44.9341 133.115 55.0458 131.5C55.6624 131.402 57.3418 131.4 57.3959 130.574ZM58.2067 132.536L61.936 137.855C62.5593 138.745 61.2008 139.692 60.5775 138.802L56.479 132.956C47.2939 134.272 33.3145 138.234 27.573 146.056L31.0837 151.22C31.6942 152.119 30.3228 153.046 29.7122 152.147L26.5839 147.545C25.6276 148.784 23.6902 148.641 22.593 147.6C20.7499 145.849 17.5612 140.777 16.424 138.467C14.8721 135.314 15.9704 133.797 18.3195 131.507C16.1312 128.849 14.6896 125.811 13.864 122.592C12.8928 118.805 12.7753 114.763 13.2964 110.794C13.6339 108.224 14.961 105.707 15.8851 103.277C16.5631 101.494 17.2138 99.4276 17.6054 96.8469C18.1696 91.6626 18.9142 88.9942 21.0759 84.2599C20.9074 83.9815 20.7475 83.6895 20.5869 83.396C19.9767 82.2815 19.3506 81.1383 18.0566 81.0573C17.3503 82.7777 16.4738 84.2686 15.2696 85.2349C12.9846 87.0686 8.53818 86.7207 7.23777 83.7763C6.93628 83.0937 6.84212 82.3363 6.96685 81.5882C4.21799 81.2658 2.99318 79.1679 3.14424 76.5516C3.23886 74.9122 4.65932 72.9807 6.33303 71.2388C9.05347 68.4075 12.9779 64.9609 16.8039 63.7565C14.418 62.5991 12.4206 61.2882 9.61974 61.2882H3.7838C1.70104 61.2882 0 59.5913 0 57.5135V3.77469C0 1.6969 1.70104 0 3.7838 0H35.118C37.2008 0 38.9018 1.6969 38.9018 3.77469V46.4524C40.8655 46.8896 43.0988 47.6219 45.2459 48.601C53.5133 52.3712 54.7672 56.0829 57.6683 63.9583C60.1125 70.5934 62.8455 76.2158 61.5611 83.4891C59.3315 96.1143 49.2339 106.312 48.5833 119.091C51.3449 119.048 52.7824 118.976 54.7571 121.307C55.9214 122.682 57.1157 124.605 57.9372 126.44C58.6023 127.925 59.9416 131.386 58.2067 132.536ZM46.9198 119.183C47.485 106.024 57.6876 95.8622 59.9231 83.2038C61.1268 76.3877 58.4147 70.7899 56.1083 64.529C53.3671 57.088 52.3753 53.6708 44.5569 50.1053C42.6551 49.2381 40.6771 48.575 38.9018 48.1539V54.9426C38.9018 56.519 39.2161 57.2583 41.0877 57.6722C42.0072 57.8751 42.6117 57.4075 43.3118 56.8876C44.0443 56.3436 44.867 55.7326 46.1287 55.4652C46.77 55.3296 46.9765 56.3023 46.3354 56.4378C45.2842 56.6606 44.5544 57.2026 43.9046 57.6852C42.2791 58.8922 42.0686 58.0787 42.1728 60.0564C42.2204 60.962 42.3558 61.8447 42.6116 62.7633C42.8865 63.7507 43.3025 64.7855 43.8996 65.9403C44.7016 67.4909 45.4229 67.5248 47.1606 67.1084C47.7967 66.9575 48.0268 67.9223 47.3907 68.0733C46.355 68.3214 45.0082 68.4328 44.0543 67.8536C44.4816 70.1873 42.0176 70.1529 41.3151 71.4172C40.9972 71.9877 40.1274 71.5054 40.4455 70.9347C41.5878 68.879 44.2574 69.9195 42.3291 66.5654C41.5075 65.1362 40.7771 64.0315 39.4063 62.5926C38.7222 61.8744 37.9567 61.1901 37.1612 60.6834C36.8836 60.8624 36.5814 61.0062 36.2609 61.1084C37.1563 65.938 37.1125 72.7633 40.9764 76.3181C43.247 74.3094 45.7838 75.9917 48.6826 72.2524C49.0822 71.7361 49.87 72.3431 49.4704 72.8593C46.3376 76.9003 44.0638 75.1862 41.7711 76.9584C42.9445 77.7803 44.3642 78.2718 46.0577 78.3361C47.1477 78.3745 47.0894 80.028 45.9992 79.9896C43.3423 79.8887 41.3818 79.0282 39.9108 77.6809C35.6726 73.799 35.4984 65.8761 34.4429 60.4368C33.8278 57.2663 33.3756 53.6614 31.816 50.8161C29.0524 45.7742 22.217 45.9344 20.8801 51.9032C20.2942 54.5188 20.5702 57.7406 20.8019 60.2384C20.9132 61.4387 21.0583 62.6567 21.2843 63.8412C21.8435 66.7709 22.8257 69.6249 23.6914 72.4763C24.4142 74.8571 24.6893 76.7008 24.5289 78.5549C24.3695 80.3965 23.7827 82.2007 22.78 84.518C20.5258 89.7272 20.0969 91.4845 19.2514 97.0848C19.0857 98.6079 18.9562 100.082 18.9255 101.432C18.8806 103.41 19.0376 105.162 19.5875 106.492C20.0021 107.498 18.4681 108.127 18.0535 107.121C17.6846 106.229 17.4651 105.206 17.3536 104.087C16.5062 106.277 15.2418 108.718 14.941 111.008C14.4467 114.771 14.5573 118.601 15.476 122.184C16.2381 125.155 17.5576 127.953 19.5512 130.396C26.0532 124.935 38.5404 119.94 46.9198 119.183ZM25.6584 64.9376C25.0249 64.7662 25.2861 63.8052 25.9197 63.9766C27.3494 64.3649 29.5039 64.2168 30.73 63.3251C31.2583 62.9412 31.8434 63.7427 31.315 64.1265C29.8404 65.199 27.384 65.4063 25.6584 64.9376ZM37.2378 57.5135V3.77469C37.2378 2.6133 36.2822 1.66001 35.118 1.66001H3.7838C2.61961 1.66001 1.66402 2.6133 1.66402 3.77469V57.5135C1.66402 58.6749 2.61958 59.6282 3.7838 59.6282H9.61974H19.0818C18.8626 57.1445 18.6815 54.1361 19.2616 51.5466C20.9 44.2318 29.674 43.4846 33.182 49.75C34.7986 52.6374 35.3434 56.2353 35.9478 59.4613C36.7221 59.1306 37.2378 58.365 37.2378 57.5135ZM38.3424 59.4784C39.157 60.038 39.9238 60.7322 40.6088 61.4513L40.6498 61.4945C40.5412 60.754 40.4945 60.0161 40.4951 59.2544C40.4946 59.2236 39.0107 58.548 38.7969 58.3925C38.7026 58.7806 38.5476 59.1461 38.3424 59.4784ZM22.236 52.0611C22.3591 51.4189 23.338 51.6055 23.2149 52.2479C23.0295 53.2167 23.0264 56.5769 24.2712 56.8324C25.0846 56.9993 28.9754 56.4324 29.6273 56.0977C30.7965 55.4972 30.4739 53.7368 30.2149 52.7183C30.0559 52.0837 31.0231 51.8425 31.1821 52.4771C31.5764 54.0278 31.7677 56.1158 30.0836 56.9808C29.2338 57.4172 25.1051 58.0169 24.0723 57.805C22.0859 57.3974 21.9349 53.6341 22.236 52.0611ZM5.91886 76.2429C5.29304 76.0536 5.58148 75.1042 6.20747 75.2936C8.30674 75.9304 10.5012 73.0793 11.3756 71.5355C11.6961 70.9675 12.562 71.4536 12.2414 72.0218C11.0961 74.044 8.58814 77.0525 5.91886 76.2429ZM17.0107 72.3868C17.5151 71.4231 18.9842 72.1881 18.4798 73.152C18.4111 73.2826 18.339 73.415 18.2638 73.5489C19.5125 73.3994 20.8364 73.0478 21.9465 72.4555C21.1721 69.9189 20.3364 67.3949 19.7844 64.7978C14.8434 65.4428 10.8649 68.9149 7.52906 72.3866C6.08792 73.8864 4.86898 75.4771 4.80175 76.6423C4.69514 78.4891 5.40211 79.8497 7.39779 79.9643C10.7048 80.1542 14.0577 76.7146 15.8081 74.2705C16.2513 73.6518 16.6577 73.0165 17.0107 72.3868ZM22.4139 74.0753C20.8143 74.8495 18.9273 75.2422 17.1573 75.2845C15.2654 77.9365 12.0354 81.0128 8.67622 81.5447C8.51324 82.0725 8.54485 82.6241 8.75879 83.1084C9.62017 85.0589 12.801 85.0909 14.2296 83.9445C15.134 83.2188 15.8367 82.0398 16.4277 80.6466C16.9633 79.3836 17.1876 78.1807 18.271 77.1805C19.0704 76.4427 20.195 77.6553 19.3955 78.3931C19.0449 78.7167 18.8562 79.0296 18.6827 79.4359C20.345 79.7036 21.1513 80.9899 21.8848 82.3172C22.4347 80.8714 22.7654 79.6369 22.8714 78.4123C22.9869 77.0771 22.8367 75.721 22.4139 74.0753ZM9.73633 82.715C9.10536 82.5411 9.3705 81.584 10.0015 81.7579C11.3548 82.1355 12.8298 80.9698 13.4717 79.8585C13.797 79.2937 14.6589 79.7878 14.3336 80.3526C13.4575 81.8693 11.5503 83.2211 9.73633 82.715ZM14.9786 4.97151H23.9232C26.0944 4.97151 26.0944 8.26374 23.9232 8.26374H14.9786C12.8074 8.26374 12.8074 4.97151 14.9786 4.97151ZM23.9232 5.9675H14.9786C14.1217 5.9675 14.1217 7.26775 14.9786 7.26775H23.9232C24.7801 7.26775 24.7801 5.9675 23.9232 5.9675Z" fill="#0500FF"/>
</svg>
