<svg xmlns="http://www.w3.org/2000/svg" height="1200" width="1600" version="1.1" xmlns:xlink="http://www.w3.org/1999/xlink" xmlns:svgjs="http://svgjs.com/svgjs"><rect fill="#f2ebe9" width="1600" height="1200"></rect><g><path d="M978.17 168.76H378.25V558.76H978.17V168.76Z" fill="#cecece" opacity="1" stroke-width="4" stroke="none"></path><path d="M999.06 570.2C999.06 577.07 993.49 582.64 986.62 582.64H369.79C362.92 582.64 357.35 577.07 357.35 570.2 357.35 563.34 362.92 557.77 369.79 557.77H986.62C993.49 557.77 999.06 563.34 999.06 570.2Z" fill="#ff4f32" opacity="1" stroke-width="4" stroke="none"></path><path d="M875.32 421.02L807.17 488.79 853.61 535.49 921.75 467.73 875.32 421.02Z" fill="#cccccc" opacity="0.25" stroke-width="4" stroke="none"></path><path d="M872.23 407.41L804.08 475.17 850.52 521.87 918.67 454.11 872.23 407.41Z" fill="#61ccff" opacity="1" stroke-width="4" stroke="none"></path><path d="M902.05 437.33L833.91 505.1 850.6 521.88 918.75 454.12 902.05 437.33Z" fill="#ff593e" opacity="1" stroke-width="4" stroke="none"></path><path d="M913.3 318.39C921.77 318.39 928.62 311.53 928.62 303.07 928.62 294.62 921.77 287.75 913.3 287.75 904.83 287.75 897.98 294.62 897.98 303.07 897.98 311.53 904.83 318.39 913.3 318.39Z" fill="#a5a5a5" opacity="0.25" stroke-width="4" stroke="none"></path><path d="M843.66 337.3C852.12 337.3 858.98 330.43 858.98 321.98 858.98 313.52 852.12 306.65 843.66 306.65 835.19 306.65 828.34 313.52 828.34 321.98 828.34 330.43 835.19 337.3 843.66 337.3Z" fill="#a5a5a5" opacity="0.25" stroke-width="4" stroke="none"></path><path d="M893.3 269.84C901.77 269.84 908.62 262.98 908.62 254.52 908.62 246.06 901.77 239.2 893.3 239.2 884.84 239.2 877.98 246.06 877.98 254.52 877.98 262.98 884.84 269.84 893.3 269.84Z" fill="#a5a5a5" opacity="0.25" stroke-width="4" stroke="none"></path><path d="M909.12 308.05C917.59 308.05 924.44 301.19 924.44 292.73 924.44 284.27 917.59 277.4 909.12 277.4 900.66 277.4 893.8 284.27 893.8 292.73 893.8 301.19 900.66 308.05 909.12 308.05Z" fill="#3c2c5b" opacity="1" stroke-width="4" stroke="none"></path><path d="M839.48 326.95C847.95 326.95 854.8 320.1 854.8 311.63 854.8 303.17 847.95 296.31 839.48 296.31 831.01 296.31 824.16 303.17 824.16 311.63 824.16 320.1 831.01 326.95 839.48 326.95Z" fill="#ff593e" opacity="1" stroke-width="4" stroke="none"></path><path d="M889.03 259.5C897.49 259.5 904.35 252.64 904.35 244.17 904.35 235.71 897.49 228.85 889.03 228.85 880.56 228.85 873.7 235.71 873.7 244.17 873.7 252.64 880.56 259.5 889.03 259.5Z" fill="#61ccff" opacity="1" stroke-width="4" stroke="none"></path><path d="M548.47 311.33C572.55 325.66 594.64 288.45 581.2 277.7 568.67 267.75 553.05 284.37 553.05 284.37L560.41 257.71C560.41 257.71 571.75 265.07 587.77 257.71" stroke="#ffc930" stroke-width="4" stroke-linecap="round" stroke-linejoin="round" opacity="1" fill="none"></path><path d="M506.19 268.85C509.47 256.31 531.16 253.03 535.34 265.47 543.8 290.74 497.83 295.41 497.04 314.61 513.75 304.47 516.24 314.61 532.06 314.61" stroke="#ffc930" stroke-width="4" stroke-linecap="round" stroke-linejoin="round" opacity="1" fill="none"></path><path d="M443.31 294.42L462.91 316.3 484.8 235.52H610.55" stroke="#ffc930" stroke-width="4" stroke-linecap="round" stroke-linejoin="round" opacity="1" fill="none"></path><path d="M628.16 275.51H651.94" stroke="#ffc930" stroke-width="4" stroke-linecap="round" stroke-linejoin="round" opacity="1" fill="none"></path><path d="M626.47 288.65H650.15" stroke="#ffc930" stroke-width="4" stroke-linecap="round" stroke-linejoin="round" opacity="1" fill="none"></path><path d="M766.65 395.1H790.43" stroke="#ffc930" stroke-width="4" stroke-linecap="round" stroke-linejoin="round" opacity="1" fill="none"></path><path d="M764.86 408.33H788.64" stroke="#ffc930" stroke-width="4" stroke-linecap="round" stroke-linejoin="round" opacity="1" fill="none"></path><path d="M639.8 405.94C642.29 390.82 657.71 388.63 664.48 391.62 670.65 394.21 678.61 404.85 667.96 418.88 658.91 431.02 636.92 436.69 638.01 415.89 638.01 415.89 641.4 370.53 671.74 372.91" stroke="#ffc930" stroke-width="4" stroke-linecap="round" stroke-linejoin="round" opacity="1" fill="none"></path><path d="M708.85 430.02L723.97 372.72 686.07 403.06H724.77" stroke="#ffc930" stroke-width="4" stroke-linecap="round" stroke-linejoin="round" opacity="1" fill="none"></path><path d="M582.7 413.51L602.3 435.39 624.18 354.61H749.94" stroke="#ffc930" stroke-width="4" stroke-linecap="round" stroke-linejoin="round" opacity="1" fill="none"></path></g><g><path d="M701.04 587.21H626.64C626.64 587.21 618.01 631.17 643.88 654.48H718.28C692.41 631.17 701.04 587.21 701.04 587.21Z" fill="#ffffff" opacity="1" stroke-width="4" stroke="none"></path></g><g><path d="M635.86 850.83H658.58V967.48H635.86V850.83Z" fill="#3c2c5b" opacity="1" stroke-width="4" stroke="none"></path><path d="M658.58 882.85V872.03H635.86V888.13L658.58 882.85Z" fill="#332749" opacity="0.2" stroke-width="4" stroke="none"></path><path d="M620.83 854.41L672.71 854.41V877.13H620.83V854.41Z" fill="#ffa0dc" opacity="1" stroke-width="4" stroke="none"></path><path d="M672.71 854.41L620.92 854.41V871.49L672.71 860.67V854.41Z" fill="#000000" opacity="0.2" stroke-width="4" stroke="none"></path><path d="M621.28 959.43H673.16V982.15H621.28V959.43Z" fill="#ffa0dc" opacity="1" stroke-width="4" stroke="none"></path><path d="M762.79 844.03L787.75 702.6C790.79 685.43 779.34 671.56 762.17 671.56H655.18C638.01 671.56 621.72 685.43 618.68 702.6L593.73 844.03C593.01 847.25 594.98 850.47 598.2 851.19 598.73 851.28 599.27 851.37 599.81 851.37H754.21C758.5 851.28 762.08 848.23 762.79 844.03Z" fill="#ffa0dc" opacity="1" stroke-width="4" stroke="none"></path><path d="M517.96 842.87V843.23C517.96 849.4 522.97 854.41 529.14 854.41L751.43 854.41C757.6 854.41 762.61 849.4 762.61 843.23V842.87C762.61 836.7 757.6 831.69 751.43 831.69H529.14C522.97 831.69 517.96 836.7 517.96 842.87Z" fill="#3c2c5b" opacity="1" stroke-width="4" stroke="none"></path><path d="M717.71 1014.89V994.76C717.71 987.78 712.07 982.15 705.1 982.15H589.34C582.36 982.15 576.73 987.78 576.73 994.76V1014.89" stroke="#000000" stroke-width="4" stroke-linecap="round" stroke-linejoin="round" opacity="1" fill="none"></path><path d="M647.22 982.15V998.52" stroke="#000000" stroke-width="4" stroke-linecap="round" stroke-linejoin="round" opacity="1" fill="none"></path><path d="M717.44 1036.71C706.62 1036.71 697.85 1027.95 697.85 1017.12 697.85 1006.31 706.62 997.53 717.44 997.53 728.26 997.53 737.03 1006.31 737.03 1017.12 737.03 1027.95 728.26 1036.71 717.44 1036.71Z" fill="#3c2c5b" opacity="1" stroke-width="4" stroke="none"></path><path d="M717.44 1022.58C714.43 1022.58 711.98 1020.14 711.98 1017.12 711.98 1014.11 714.43 1011.67 717.44 1011.67 720.45 1011.67 722.9 1014.11 722.9 1017.12 722.9 1020.14 720.45 1022.58 717.44 1022.58Z" fill="#c7b8e5" opacity="1" stroke-width="4" stroke="none"></path><path d="M574.73 1036.59C563.96 1035.52 556.09 1025.93 557.16 1015.16 558.22 1004.4 567.82 996.53 578.58 997.6 589.35 998.67 597.21 1008.26 596.15 1019.03 595.09 1029.79 585.49 1037.65 574.73 1036.59Z" fill="#3c2c5b" opacity="1" stroke-width="4" stroke="none"></path><path d="M576.64 1022.58C573.63 1022.58 571.18 1020.14 571.18 1017.12 571.18 1014.11 573.63 1011.67 576.64 1011.67 579.65 1011.67 582.1 1014.11 582.1 1017.12 582.1 1020.14 579.65 1022.58 576.64 1022.58Z" fill="#c7b8e5" opacity="1" stroke-width="4" stroke="none"></path><path d="M647.58 1036.71C636.76 1036.71 627.99 1027.95 627.99 1017.12 627.99 1006.31 636.76 997.53 647.58 997.53 658.4 997.53 667.17 1006.31 667.17 1017.12 667.17 1027.95 658.4 1036.71 647.58 1036.71Z" fill="#3c2c5b" opacity="1" stroke-width="4" stroke="none"></path><path d="M647.58 1022.58C644.56 1022.58 642.12 1020.14 642.12 1017.12 642.12 1014.11 644.56 1011.67 647.58 1011.67 650.59 1011.67 653.03 1014.11 653.03 1017.12 653.03 1020.14 650.59 1022.58 647.58 1022.58Z" fill="#c7b8e5" opacity="1" stroke-width="4" stroke="none"></path><path d="M658.58 959.43H635.86" stroke="#000000" stroke-width="4" stroke-linecap="round" stroke-linejoin="round" opacity="1" fill="none"></path><path d="M658.13 879.01H636.39" stroke="#000000" stroke-width="4" stroke-linecap="round" stroke-linejoin="round" opacity="1" fill="none"></path><path d="M672.71 855.39L621.81 855.39" stroke="#332749" stroke-width="4" stroke-linecap="round" stroke-linejoin="round" opacity="1" fill="none"></path></g><g><path d="M1372.47 903.57C1383.77 903.57 1392.93 894.4 1392.93 883.1 1392.93 871.8 1383.77 862.63 1372.47 862.63 1361.16 862.63 1352 871.8 1352 883.1 1352 894.4 1361.16 903.57 1372.47 903.57Z" fill="#ff4f32" opacity="1" stroke-width="4" stroke="none"></path></g><g><path d="M293.42 402.69C300.98 402.69 307.11 396.56 307.11 389 307.11 381.44 300.98 375.31 293.42 375.31 285.86 375.31 279.73 381.44 279.73 389 279.73 396.56 285.86 402.69 293.42 402.69Z" fill="#ff4f32" opacity="1" stroke-width="4" stroke="none"></path></g><g><path d="M278.26 618.21L266.43 664.48 255.99 620.32 190.48 644.29 244.89 602.58 202.62 574.17 252.69 580.24 257.12 529.87 273.02 577.97 322.03 555.17 289.42 597.71 324.27 630.95 278.26 618.21Z" fill="#ffffff" opacity="1" stroke-width="4" stroke="none"></path></g><g><path d="M838.4 609.66L836.03 615.29 834.03 621.36C834.03 621.44 834.03 621.51 834.18 621.51L840.84 621.73 847.14 619.81C847.21 619.81 847.21 619.73 847.21 619.73L843.73 614.25 840.1 609.44C839.58 608.84 838.62 608.99 838.4 609.66Z" fill="#ffa0dc" opacity="1" stroke-width="4" stroke="none"></path><path d="M870.18 597.06L866.62 601.73 863.21 606.99V607.06L869.58 609.06 876.18 608.84C876.25 608.84 876.32 608.76 876.25 608.69L874.32 602.69 872.1 597.21C871.88 596.47 870.69 596.32 870.18 597.06Z" fill="#ffa0dc" opacity="1" stroke-width="4" stroke="none"></path><path d="M854.25 671.58L863.21 607.07C863.21 606.99 863.29 606.99 863.29 606.99L876.32 608.84C876.4 608.84 876.4 608.92 876.4 608.92L867.43 673.44 854.25 671.58Z" fill="#231f20" opacity="1" stroke-width="4" stroke="none"></path><path d="M871.51 594.33L866.69 601.73 874.47 602.77 871.66 594.33C871.58 594.25 871.51 594.25 871.51 594.33Z" fill="#231f20" opacity="1" stroke-width="4" stroke="none"></path><path d="M834.03 621.44L847.14 619.73C847.21 619.73 847.21 619.73 847.21 619.81L855.58 684.4 842.32 686.1 833.95 621.51C833.95 621.44 834.03 621.44 834.03 621.44Z" fill="#3c2c5b" opacity="1" stroke-width="4" stroke="none"></path><path d="M838.77 606.84L835.95 615.29 843.66 614.25 838.92 606.84C838.92 606.77 838.84 606.77 838.77 606.84Z" fill="#3c2c5b" opacity="1" stroke-width="4" stroke="none"></path><path d="M872.77 722.55H834.03C834.03 722.55 833.95 722.55 833.95 722.47L825.14 680.4 821.66 653.81C821.66 653.73 821.66 653.73 821.73 653.73H885.29C885.36 653.73 885.36 653.81 885.36 653.81L881.88 680.4 872.77 722.55C872.84 722.55 872.84 722.47 872.77 722.55Z" fill="#ff4f32" opacity="1" stroke-width="4" stroke="none"></path><path d="M825.14 680.4L830.99 724.84H876.1L881.88 680.4H825.14Z" fill="#ffa0dc" opacity="1" stroke-width="4" stroke="none"></path></g><g><path d="M1416.48 682.6L1380.82 642.78 1398.31 691.16 1357.17 703.42 1401.05 713.53 1394.66 760 1420.02 720.25 1453.15 749.86 1434.62 709.76 1476.93 697.19 1431.33 689.18 1444.12 645.34 1416.48 682.6Z" fill="#ffc930" opacity="1" stroke-width="4" stroke="none"></path></g><g><path d="M1364.48 450.88C1377.01 450.88 1387.16 440.72 1387.16 428.2 1387.16 415.68 1377.01 405.52 1364.48 405.52 1351.96 405.52 1341.81 415.68 1341.81 428.2 1341.81 440.72 1351.96 450.88 1364.48 450.88Z" fill="#61ccff" opacity="1" stroke-width="4" stroke="none"></path></g><g><path d="M236.87 844C247.4 844 255.94 835.46 255.94 824.93 255.94 814.39 247.4 805.85 236.87 805.85 226.34 805.85 217.8 814.39 217.8 824.93 217.8 835.46 226.34 844 236.87 844Z" fill="#61ccff" opacity="1" stroke-width="4" stroke="none"></path></g><g><path d="M398.39 649.3H557.34L546.87 582.49C545.63 574.21 542.87 566.21 538.69 558.98L536.59 569.26C530.88 597.24 506.32 617.32 477.77 617.32 449.21 617.32 424.66 597.24 418.95 569.26L416.85 558.98C412.76 566.31 410 574.21 408.67 582.49L398.39 649.3Z" fill="#61ccff" opacity="1" stroke-width="4" stroke="none"></path><path d="M419.04 569.26C424.75 602.67 441.03 630.36 477.77 630.36 514.51 630.36 530.88 602.76 536.59 569.26L537.16 565.92C536.4 564.21 535.54 562.5 534.59 560.88L532.59 570.3C527.26 596 504.32 614.56 477.67 614.56 451.02 614.56 428.08 596.1 422.75 570.3L420.75 560.88C419.8 562.5 419.04 564.12 418.28 565.83L419.04 569.26Z" fill="#000000" opacity="0.25" stroke-width="4" stroke="none"></path><path d="M476.06 499.58H479.58C490.9 499.58 500.04 508.72 500.04 520.05V543.18C500.04 554.5 490.9 563.64 479.58 563.64H476.06C464.73 563.64 455.59 554.5 455.59 543.18V520.05C455.59 508.72 464.73 499.58 476.06 499.58Z" stroke="#22181f" stroke-width="4" stroke-linecap="round" stroke-linejoin="round" opacity="1" fill="none"></path><path d="M557.25 649.3H398.39L392.29 688.71C389.82 704.8 400.77 719.74 416.85 722.21 418.28 722.4 419.8 722.6 421.33 722.6H534.4C550.68 722.6 563.81 709.46 563.81 693.18 563.81 691.66 563.72 690.14 563.43 688.62L557.25 649.3Z" fill="#ff4f32" opacity="1" stroke-width="4" stroke="none"></path><path d="M397.72 649.5H557.91" stroke="#78423a" stroke-width="4" stroke-linecap="round" stroke-linejoin="round" opacity="1" fill="none"></path><path d="M477.77 617.23C506.32 617.23 530.88 597.14 536.59 569.16L538.69 558.88C526.31 536.89 502.99 523.28 477.77 523.19 452.55 523.19 429.23 536.8 416.85 558.88L418.95 569.16C424.75 597.14 449.31 617.23 477.77 617.23Z" fill="#ffa0dc" opacity="1" stroke-width="4" stroke="none"></path><path d="M455.59 571.83H500.04" stroke="#22181f" stroke-width="4" stroke-linecap="round" stroke-linejoin="round" opacity="1" fill="none"></path></g><g><path d="M894.27 713.52H399.51C376.04 713.52 357.06 732.5 357.06 755.97V1038.36C357.06 1045.46 362.85 1051.25 369.94 1051.25 370.04 1051.25 370.04 1051.25 370.14 1051.25 377.24 1050.95 382.83 1045.06 382.73 1037.96V762.47C382.73 749.68 393.12 739.29 405.9 739.29H887.78C900.56 739.29 910.95 749.68 910.95 762.47V1037.86C910.85 1044.96 916.44 1050.85 923.54 1051.15 930.63 1051.35 936.52 1045.66 936.72 1038.56 936.72 1038.46 936.72 1038.36 936.72 1038.26V755.97C936.72 732.5 917.74 713.52 894.27 713.52Z" fill="#3c2c5b" opacity="1" stroke-width="4" stroke="none"></path></g><g><path d="M1026.91 629.87H953.77C953.77 629.87 945.29 673.09 970.72 696H1043.86C1018.43 673.09 1026.91 629.87 1026.91 629.87Z" fill="#ffc930" opacity="1" stroke-width="4" stroke="none"></path></g><g><path d="M1292.48 848.69C1286.36 814.35 1289.27 778.45 1290.83 742.85 1292.87 694.41 1292.19 646.45 1262.33 603.07 1262.33 603.07 1250.07 603.07 1235.87 603.07 1235.87 602.97 1235.87 602.97 1235.87 602.97L1201.24 595.29 1154.06 603.16C1154.06 603.16 1076.34 671.45 1010.78 842.65 995.99 881.37 983.64 913.66 973.33 940.32L1011.56 970.57 1064.28 977.48C1081.5 928.16 1082.66 904.33 1094.92 879.81 1104.26 861.23 1156.88 784.48 1189.57 735.17 1190.25 772.03 1192.39 814.54 1197.15 859.58 1200.46 891 1208.44 927.77 1214.18 960.94L1266.12 973.88 1309.02 961.23C1308.14 907.83 1297.74 872.52 1292.48 848.69Z" fill="#3c2c5b" opacity="1" stroke-width="4" stroke="none"></path><path d="M1241.61 307.94C1225.56 299.96 1212.82 300.35 1202.89 304.34 1190.54 308.42 1180.81 315.33 1175.75 326.61 1172.35 334.2 1169.92 342.18 1167.88 347.53 1167.68 348.01 1167.29 348.31 1166.81 348.4 1164.57 348.6 1158.44 349.47 1157.56 352.29 1156.49 355.7 1159.8 360.37 1161.26 362.12 1161.65 362.6 1161.75 363.19 1161.46 363.67 1155.23 377.97 1153.96 387.41 1157.08 396.07 1159.7 403.46 1167.29 412.6 1188.69 411.44L1187.43 417.18 1190.05 421.65 1253.96 422.53 1258.53 417.08 1261.94 401.13C1261.94 401.13 1264.66 365.91 1265.54 359.49 1267.87 341.69 1268.55 321.46 1241.61 307.94Z" fill="#935757" opacity="1" stroke-width="4" stroke="none"></path><path d="M1188.69 411.53L1186.84 420C1186.84 420.09 1186.94 420.19 1186.94 420.09L1208.92 406.86C1209.02 406.77 1208.92 406.67 1208.83 406.67 1198.91 410.66 1189.66 411.34 1188.69 411.53 1188.69 411.44 1188.69 411.44 1188.69 411.53Z" fill="#0d0d0d" opacity="0.3" stroke-width="4" stroke="none"></path><path d="M1214.18 1047.03C1211.84 1049.65 1209.22 1052.09 1206.59 1054.13 1188.59 1068.33 1175.95 1067.94 1174.2 1095.08L1286.74 1091.58C1286.74 1091.58 1299.1 1082.53 1303.67 1047.42 1305.32 1034.38 1306.78 1018.62 1307.85 1000.53 1307.85 1000.53 1307.85 1000.43 1307.76 1000.43L1261.65 988.95 1220.11 1000.43 1220.01 1000.53C1222.15 1022.22 1221.28 1039.25 1214.18 1047.03Z" fill="#935757" opacity="1" stroke-width="4" stroke="none"></path><path d="M1308.92 961.23L1214.28 960.94C1214.18 960.94 1214.18 961.04 1214.18 961.04 1216.61 974.95 1218.85 988.47 1220.01 1000.34 1220.01 1000.43 1220.01 1000.43 1220.11 1000.43H1307.76C1307.85 1000.43 1307.85 1000.43 1307.85 1000.34 1307.95 998.2 1308.05 996.15 1308.14 993.92 1308.92 982.44 1309.21 971.54 1309.02 961.33 1309.02 961.23 1309.02 961.23 1308.92 961.23Z" fill="#61ccff" opacity="1" stroke-width="4" stroke="none"></path><path d="M1189.37 686.14L1187.91 685.65C1182.08 683.8 1175.95 687.31 1174.49 693.24L1150.75 793.14C1164.37 772.91 1178.19 752.38 1189.57 735.17 1189.18 717.46 1189.18 700.93 1189.37 686.14Z" fill="#1a1a1a" opacity="0.3" stroke-width="4" stroke="none"></path><path d="M1290.83 742.85C1291.71 726.31 1291.9 709 1290.93 693.05 1288.5 638.77 1262.43 603.07 1262.43 603.07L1235.97 602.97 1224.68 712.31 1255.23 757.93C1261.16 766.68 1274 766.88 1280.03 758.12L1290.83 742.85Z" fill="#1a1a1a" opacity="0.3" stroke-width="4" stroke="none"></path><path d="M926.53 1041C922.73 1045.37 917.87 1049.26 912.88 1052.8 915.18 1063.01 877.79 1071.15 876.14 1095.66 876.14 1095.76 876.14 1095.76 876.24 1095.76L995.11 1093.14C995.79 1092.65 1015.83 1079.32 1033.53 1046.93 1038.88 1037.11 1044.42 1025.92 1049.87 1013.86V1013.76L1009.99 981.37C1009.99 981.37 1009.99 981.37 1009.89 981.37L958.92 976.6C958.92 976.6 958.82 976.6 958.82 976.7 945.3 1010.45 935.38 1030.78 926.53 1041Z" fill="#935757" stroke-linejoin="round" opacity="1" stroke-width="4" stroke="none"></path><path d="M959.02 976.5L1049.87 1013.66C1049.97 1013.66 1049.97 1013.66 1049.97 1013.57 1053.76 1005.1 1057.36 996.15 1060.86 986.81 1062.03 983.51 1063.2 980.49 1064.27 977.48 1064.27 977.38 1064.27 977.38 1064.17 977.38L973.41 940.32C973.32 940.32 973.32 940.32 973.32 940.41 968.06 953.84 963.39 965.9 959.02 976.41 958.92 976.5 958.92 976.5 959.02 976.5Z" fill="#61ccff" opacity="1" stroke-width="4" stroke="none"></path><path d="M967.67 1085.16H925.75C925.65 1085.16 925.65 1085.16 925.65 1085.06 925.65 1073.88 919.43 1060.26 912.91 1052.77H912.81C893.65 1065.8 868.94 1074.65 867.38 1099.07 867.38 1099.17 867.38 1099.17 867.48 1099.17L999.87 1099.26H999.97C1000.65 1098.39 1016.12 1079.23 1033.63 1047.12 1033.63 1047.03 1033.63 1047.03 1033.53 1046.93 996.95 1041.58 971.47 1065.8 967.67 1085.16 967.77 1085.16 967.77 1085.16 967.67 1085.16Z" fill="#231f20" stroke-linejoin="round" opacity="1" stroke-width="4" stroke="none"></path><path d="M1316.93 320.94C1339.85 306.03 1348.24 278.28 1335.67 258.96 1323.1 239.64 1294.33 236.07 1271.4 250.98 1248.49 265.89 1240.1 293.65 1252.67 312.97 1265.24 332.28 1294.01 335.85 1316.93 320.94Z" fill="#000000" opacity="1" stroke-width="4" stroke="none"></path><path d="M1189.57 735.17L1189.37 686.14" stroke="#1a1a1a" stroke-width="4" stroke-linecap="round" stroke-linejoin="round" opacity="1" fill="none"></path><path d="M925.95 396.85C914.18 392.47 905.92 392.86 911.95 402.88 913.21 405.02 914.57 406.96 916.13 408.81 916.42 409.2 916.13 409.69 915.64 409.59 902.41 407.25 865.74 400.06 865.55 412.7 865.55 413.09 865.25 413.38 864.87 413.38 857.86 414.45 855.43 421.46 857.96 425.54 858.06 425.74 858.06 425.93 857.86 426.12 850.57 431.09 856.21 437.99 857.28 439.26 857.38 439.35 857.47 439.55 857.38 439.74 857.18 441.3 856.69 449.18 868.37 454.53 880.72 460.27 928.87 474.08 928.87 474.08 928.87 474.08 936.95 483.32 955.53 500.44H955.62L987.92 481.28 1002.02 444.02V443.93C975.17 423.98 946.58 404.53 925.95 396.85Z" fill="#935757" opacity="1" stroke-width="4" stroke="none"></path><path d="M1244.24 303.27C1214.18 290.43 1188.4 297.04 1175.75 326.61 1177.21 328.17 1183.73 330.12 1192 327 1192.29 326.91 1192.68 327.1 1192.58 327.49 1192.29 330.5 1192.29 341.3 1206.4 341.79 1206.69 341.79 1206.88 342.08 1206.78 342.37 1206.1 344.61 1204.45 353.36 1213.59 360.27 1213.79 360.37 1213.98 360.37 1214.08 360.27 1216.8 358.62 1238.98 345.68 1248.42 357.45 1258.05 371.55 1238.89 386.73 1233.73 390.33 1233.15 390.72 1233.15 391.69 1233.73 392.08 1248.03 403.36 1261.84 401.03 1261.84 401.03 1268.94 363.09 1285.77 327.1 1244.24 303.27Z" fill="#000000" opacity="1" stroke-width="4" stroke="none"></path><path d="M1181.01 355.31C1182.67 355.31 1184.02 353.96 1184.02 352.29 1184.02 350.62 1182.67 349.28 1181.01 349.28 1179.34 349.28 1177.99 350.62 1177.99 352.29 1177.99 353.96 1179.34 355.31 1181.01 355.31Z" fill="#000000" opacity="1" stroke-width="4" stroke="none"></path><path d="M1164.96 1099.17H1293.36C1293.36 1099.17 1293.46 1099.17 1293.46 1099.07 1293.85 1098 1299.1 1081.46 1303.67 1047.51 1303.67 1047.42 1303.57 1047.42 1303.57 1047.42 1279.35 1052.18 1263.4 1070.18 1260.48 1085.16 1260.48 1085.16 1260.48 1085.26 1260.38 1085.26H1218.46C1218.36 1085.26 1218.36 1085.26 1218.36 1085.16 1218.36 1074.75 1212.91 1062.01 1206.78 1054.23H1206.69C1188.89 1068.14 1166.9 1071.44 1165.05 1099.07 1164.86 1099.07 1164.86 1099.17 1164.96 1099.17Z" fill="#231f20" opacity="1" stroke-width="4" stroke="none"></path><path d="M1256.01 428.65C1256.2 427.97 1257.08 423.5 1258.53 417.27 1258.53 417.18 1258.53 417.18 1258.44 417.18L1187.52 417.27C1187.52 417.27 1187.43 417.27 1187.43 417.37L1186.75 420.29 1185.09 427.68 1185 427.78C1184.12 427.68 1176.82 427.1 1167.39 427.88H1167.29C1165.64 430.6 1163.89 435.76 1163.79 436.14 1163.79 436.14 1163.79 436.14 1163.79 436.24L1194.72 537.31C1194.72 537.41 1194.82 537.41 1194.92 537.31L1273.9 433.42V433.32C1273.81 433.13 1273.42 432.06 1273.22 431.57 1273.22 431.57 1273.22 431.48 1273.13 431.48 1267.58 429.92 1261.74 429.04 1256.1 428.75 1256.1 428.75 1256.01 428.75 1256.01 428.65Z" fill="#ffffff" opacity="1" stroke-width="4" stroke="none"></path><path d="M1278.77 961.33C1278.77 961.33 1272.25 892.26 1262.72 832.05 1245.69 723.78 1247.64 603.46 1247.64 603.46" stroke="#1a1a1a" stroke-width="4" stroke-linecap="round" stroke-linejoin="round" opacity="1" fill="none"></path><path d="M1238.69 725.83C1244.82 722.52 1246.08 710.56 1239.08 710.75L1231.4 718.63 1238.69 725.83Z" fill="#935757" opacity="1" stroke-width="4" stroke="none"></path><path d="M1325.07 660.65L1263.2 599.86 1242.58 579.62H1242.48L1219.43 603.07 1189.18 633.81 1177.8 648.69V648.79L1262.52 740.61H1262.62L1332.17 670.28V670.19L1325.07 660.65Z" fill="#61ccff" opacity="1" stroke-width="4" stroke="none"></path><path d="M1189.18 633.9L1175.37 647.91C1171.09 652.29 1171.09 659.39 1175.46 663.67L1257.08 743.92C1257.76 744.6 1258.92 744.6 1259.6 743.92L1279.94 723.2 1189.18 633.9Z" fill="#b5c5cc" opacity="1" stroke-width="4" stroke="none"></path><path d="M1316.9 460.27C1306 445.97 1290.54 435.95 1273.32 431.48H1273.22L1198.71 522.13C1198.61 522.23 1198.61 522.13 1198.52 522.13L1167.49 427.78C1167.49 427.78 1167.39 427.78 1167.39 427.68 1155.42 428.75 1138.89 432.06 1123.03 440.52 1097.45 454.24 1053.97 482.16 1052.31 483.23H1052.22C1051.44 482.64 1041.71 474.37 1027.41 463.19 1020.02 457.35 1011.46 450.83 1002.31 444.02 1002.22 444.02 1002.22 444.02 1002.22 444.02L955.82 500.44C955.82 500.54 955.82 500.54 955.82 500.54 1020.7 562.31 1044.14 574.08 1100.07 547.13 1110.78 541.98 1122.74 535.36 1136.46 527.48 1136.55 527.48 1136.55 527.48 1136.55 527.58 1137.33 530.89 1153.48 600.73 1154.06 603.07 1154.06 603.07 1154.06 603.07 1154.16 603.16 1155.81 603.16 1189.96 603.16 1219.53 603.07L1242.58 579.62C1242.68 579.62 1242.68 579.62 1242.68 579.62L1263.3 599.86 1278.96 545.48 1297.64 579.04C1297.74 579.33 1297.74 579.62 1297.44 579.72 1294.33 581.96 1273.52 597.43 1249.97 615.71V615.81L1258.24 656.08 1286.94 670.77H1287.04C1317.68 655.6 1353.86 632.35 1363.2 603.55 1374 569.51 1340.93 489.45 1316.9 460.27Z" fill="#ffa0dc" opacity="1" stroke-width="4" stroke="none"></path><path d="M1242.48 579.72C1242.58 579.72 1242.58 579.72 1242.58 579.72L1263.2 599.95 1278.87 545.58V545.48L1267.58 526.61C1267.58 526.51 1267.48 526.51 1267.39 526.61L1201.34 603.07C1201.24 603.16 1201.34 603.26 1201.43 603.26H1219.43L1242.48 579.72Z" fill="#b7699a" opacity="0.3" stroke-width="4" stroke="none"></path><path d="M1182.47 675.73C1183.44 680.79 1190.44 680.79 1190.44 680.79 1187.43 684.78 1185.38 687.79 1185.38 687.79 1180.33 697.81 1191.42 702.87 1191.42 702.87 1192.39 714.93 1203.48 713.86 1203.48 713.86 1208.54 726.9 1216.51 723.88 1216.51 723.88 1222.54 736.92 1238.79 725.83 1238.79 725.83L1234.8 721.45C1233.44 719.89 1233.44 717.56 1234.8 716 1237.04 713.47 1241.22 709.39 1248.61 703.84 1257.56 697.33 1264.76 688.77 1269.62 678.75 1274.59 676.61 1280.91 673.59 1286.65 670.77 1286.74 670.77 1286.74 670.67 1286.65 670.67L1249.78 615.81C1249.78 615.81 1249.68 615.71 1249.68 615.81 1217.78 640.62 1181.4 670.19 1182.47 675.73Z" fill="#935757" opacity="1" stroke-width="4" stroke="none"></path><path d="M1258.53 745.48L1257.17 744.21C1253.18 740.22 1253.09 733.8 1257.08 729.82L1325.07 660.65 1333.53 669.02 1340.34 675.73C1340.63 676.02 1340.63 676.61 1340.34 676.9L1272.93 745.48C1269.04 749.37 1262.72 749.47 1258.53 745.48Z" fill="#ffffff" opacity="1" stroke-width="4" stroke="none"></path><path d="M1041.22 490.62L1052.12 483.32C1052.22 483.32 1052.22 483.23 1052.12 483.13 1051.05 482.25 1041.42 474.08 1027.7 463.38 1027.61 463.28 1027.51 463.38 1027.51 463.48L1041.03 490.52C1041.13 490.72 1041.13 490.72 1041.22 490.62Z" fill="#b7699a" opacity="0.3" stroke-width="4" stroke="none"></path><path d="M1169.43 371.55C1170.7 372.92 1176.05 375.06 1179.45 371.46" stroke="#0d0d0d" stroke-width="4" stroke-linecap="round" stroke-linejoin="round" opacity="1" fill="none"></path><path d="M1188.69 411.44C1193.94 411.05 1204.16 408.71 1208.92 406.67" stroke="#0d0d0d" stroke-width="4" stroke-linecap="round" stroke-linejoin="round" opacity="1" fill="none"></path><path d="M1223.91 373.99L1234.9 369.02" stroke="#0d0d0d" stroke-width="4" stroke-linecap="round" stroke-linejoin="round" opacity="1" fill="none"></path><path d="M857.46 439.45C857.46 439.45 906.49 447.62 911.45 448.69 911.45 448.69 935.67 443.63 956.59 446.65" stroke="#0d0d0d" stroke-width="4" stroke-linecap="round" stroke-linejoin="round" opacity="1" fill="none"></path><path d="M857.76 425.83L915.55 434.69" stroke="#0d0d0d" stroke-width="4" stroke-linecap="round" stroke-linejoin="round" opacity="1" fill="none"></path><path d="M865.44 412.99L920.5 421.65" stroke="#0d0d0d" stroke-width="4" stroke-linecap="round" stroke-linejoin="round" opacity="1" fill="none"></path><path d="M1278.87 545.48L1267.58 526.51" stroke="#b7699a" stroke-width="4" stroke-linecap="round" stroke-linejoin="round" opacity="1" fill="none"></path><path d="M1190.44 680.79C1195.01 675.93 1199.68 672.52 1199.68 672.52" stroke="#0d0d0d" stroke-width="4" stroke-linecap="round" stroke-linejoin="round" opacity="1" fill="none"></path><path d="M1191.42 702.87C1192.39 697.91 1193.85 692.85 1201.73 685.56" stroke="#0d0d0d" stroke-width="4" stroke-linecap="round" stroke-linejoin="round" opacity="1" fill="none"></path><path d="M1203.48 713.86C1203.96 706.08 1205.33 702.77 1211.94 695.96" stroke="#0d0d0d" stroke-width="4" stroke-linecap="round" stroke-linejoin="round" opacity="1" fill="none"></path><path d="M1216.51 723.88C1216.61 714.25 1218.07 711.82 1223.32 706.47" stroke="#0d0d0d" stroke-width="4" stroke-linecap="round" stroke-linejoin="round" opacity="1" fill="none"></path><path d="M1041.22 490.62L1052.22 483.32" stroke="#b7699a" stroke-width="4" stroke-linecap="round" stroke-linejoin="round" opacity="1" fill="none"></path><path d="M1100.37 547.04C1112.43 541.49 1135.19 528.17 1136.46 527.48 1136.46 527.48 1136.55 527.39 1136.46 527.39L1131.11 505.01C1131.11 504.92 1131.01 504.92 1130.91 505.01L1100.27 546.94C1100.27 547.04 1100.37 547.13 1100.37 547.04Z" fill="#b7699a" opacity="0.3" stroke-width="4" stroke="none"></path><path d="M1136.46 527.48L1131.2 505.01" stroke="#b7699a" stroke-width="4" stroke-linecap="round" stroke-linejoin="round" opacity="1" fill="none"></path></g><g><path d="M481.15 938.67C491.36 938.67 499.64 930.39 499.64 920.18 499.64 909.97 491.36 901.69 481.15 901.69 470.94 901.69 462.67 909.97 462.67 920.18 462.67 930.39 470.94 938.67 481.15 938.67Z" fill="#ffffff" opacity="1" stroke-width="4" stroke="none"></path></g><g><path d="M1073.04 223.28C1083.18 223.28 1091.41 215.06 1091.41 204.91 1091.41 194.76 1083.18 186.54 1073.04 186.54 1062.89 186.54 1054.67 194.76 1054.67 204.91 1054.67 215.06 1062.89 223.28 1073.04 223.28Z" fill="#ffffff" opacity="1" stroke-width="4" stroke="none"></path></g></svg>